Coordinates
version=1
nRows=6
nColumns=107
inDegrees=yes

Units are S.I. units (second, meters, Newtons, ...)
If the header above contains a line with 'inDegrees', this indicates whether rotational values are in degrees (yes) or radians (no).

endheader
time	sternoclavicular_r2	sternoclavicular_r3	unrotscap_r3	unrotscap_r2	acromioclavicular_r2	acromioclavicular_r3	acromioclavicular_r1	unrothum_r1	unrothum_r3	unrothum_r2	elv_angle	shoulder_elv	shoulder1_r2	shoulder_rot	elbow_flexion	pro_sup	deviation	flexion	proximal_distal_r1	proximal_distal_r3	cmc_flexion	cmc_abduction	mp_flexion	ip_flexion	mcp2_flexion	mcp2_abduction	pm2_flexion	md2_flexion	mcp3_flexion	mcp3_abduction	pm3_flexion	md3_flexion	mcp4_flexion	mcp4_abduction	pm4_flexion	md4_flexion	mcp5_flexion	mcp5_abduction	pm5_flexion	md5_flexion	bicpt_tx	bicpt_ty	bicpt_tz	bicpt2_tx	bicpt2_ty	bicpt2_tz	ptpt_tx	ptpt_ty	ptpt_tz	FCUpt_tx	FCUpt_ty	FCUpt_tz	EDCpt_tx	EDCpt_ty	EDCpt_tz	APLpt_tx	APLpt_ty	APLpt_tz	FPLpt_tx	FPLpt_ty	FPLpt_tz	FPLpt2_tx	FPLpt2_ty	FPLpt2_tz	PEC1pt2_tx	PEC1pt2_ty	PEC1pt2_tz	PEC1pt3_tx	PEC1pt3_ty	PEC1pt3_tz	PEC2pt2_tx	PEC2pt2_ty	PEC2pt2_tz	PEC2pt3_tx	PEC2pt3_ty	PEC2pt3_tz	PEC3pt2_tx	PEC3pt2_ty	PEC3pt2_tz	PEC3pt3_tx	PEC3pt3_ty	PEC3pt3_tz	DELT2pt2a_tx	DELT2pt2a_ty	DELT2pt2a_tz	DELT2pt2_tx	DELT2pt2_ty	DELT2pt2_tz	LAT1pt2_tx	LAT1pt2_ty	LAT1pt2_tz	LAT1pt3_tx	LAT1pt3_ty	LAT1pt3_tz	LAT2pt2_tx	LAT2pt2_ty	LAT2pt2_tz	LAT2pt3_tx	LAT2pt3_ty	LAT2pt3_tz	LAT3pt2_tx	LAT3pt2_ty	LAT3pt2_tz	LAT3pt3_tx	LAT3pt3_ty	LAT3pt3_tz
      0.00000000	     -0.32398600	      0.13722518	     -0.13722518	      0.32398600	     -0.06560057	      0.53016077	      0.23830362	     -0.23830362	     -0.53016077	      0.06560057	     98.90930948	     76.70656539	     -1.72629311	    -20.47917667	     28.13606264	     20.78108012	      0.06908462	     -0.69320919	      0.08985160	     -0.34660459	     -1.36190800	      6.25840143	    -34.92018246	    -20.96781240	    -13.54748623	     11.05543971	     13.13106151	    -26.61278937	     58.22814721	      8.38311328	     86.34499744	     73.86290199	     49.80370338	     -4.74895246	     88.28076180	     42.64357537	      0.35970413	    -13.33633659	    -17.03274216	      4.94368821	      0.00083065	     -0.03082482	     -0.00481943	      0.01611599	     -0.01784330	     -0.00926274	      0.00601451	     -0.06589287	     -0.00172403	      0.00590230	     -0.18384242	     -0.00011091	     -0.00249372	      0.00065544	      0.00018430	      0.00030682	      0.00012273	      0.00061365	      0.00039273	      0.00117820	      0.00066274	     -0.00005416	      0.00003508	      0.00004209	      0.00251427	      0.00882126	      0.00613653	     -0.00822466	      0.01985849	     -0.01883574	      0.00251427	      0.00882126	      0.00613653	      0.00055399	      0.01840959	     -0.00967356	      0.00396831	      0.00490539	      0.01601723	      0.00000000	      0.00786969	      0.00000000	     -0.00720190	     -0.03328215	     -0.00648942	      0.01405123	     -0.00044670	     -0.00346633	     -0.00089491	      0.01500041	     -0.00613653	      0.00247166	      0.02164832	     -0.01789821	     -0.00600869	      0.01299751	     -0.00549731	     -0.01252875	      0.02744393	     -0.03072527	     -0.02352337	      0.01453164	     -0.00737236	     -0.01559701	      0.03170541	     -0.03839593
      0.03333333	     -0.32385201	      0.13716843	     -0.13716843	      0.32385201	     -0.06557344	      0.52994151	      0.23820506	     -0.23820506	     -0.52994151	      0.06557344	     99.05348481	     76.67484236	     -1.72880945	    -20.62120128	     27.90328353	     20.96849427	      0.07671704	     -0.69735108	      0.09929850	     -0.34867554	     -2.51166321	      4.64258876	    -34.63015598	    -20.73457208	    -13.30326101	     11.14160031	     13.21896438	    -26.58021848	     59.75063222	      8.18652437	     86.35519723	     73.51652187	     50.33967018	     -4.81123829	     88.69346319	     42.69090649	      0.49307101	    -13.29497286	    -17.05580913	      4.93798521	      0.00082295	     -0.03079814	     -0.00481514	      0.01612454	     -0.01778006	     -0.00924775	      0.00600066	     -0.06590183	     -0.00173912	      0.00592006	     -0.18383954	     -0.00011494	     -0.00251621	      0.00066196	      0.00018490	      0.00030624	      0.00012249	      0.00061247	      0.00039198	      0.00117595	      0.00066147	     -0.00012339	      0.00006630	      0.00007956	      0.00251323	      0.00881761	      0.00613399	     -0.00822125	      0.01985028	     -0.01882795	      0.00251323	      0.00881761	      0.00613399	      0.00055376	      0.01840198	     -0.00966956	      0.00396712	      0.00490336	      0.01601433	      0.00000000	      0.00786314	      0.00000000	     -0.00719892	     -0.03326839	     -0.00648398	      0.01413214	     -0.00045109	     -0.00351686	     -0.00089454	      0.01499420	     -0.00613399	      0.00247064	      0.02163936	     -0.01789081	     -0.00600620	      0.01299214	     -0.00549504	     -0.01252357	      0.02743258	     -0.03071256	     -0.02351364	      0.01452564	     -0.00736931	     -0.01559056	      0.03169229	     -0.03838005
      0.06666667	     -0.32379719	      0.13714521	     -0.13714521	      0.32379719	     -0.06556234	      0.52985181	      0.23816474	     -0.23816474	     -0.52985181	      0.06556234	     99.14984907	     76.66186325	     -1.73049132	    -20.86744368	     27.87389484	     22.27647226	      0.10345050	     -0.65199948	      0.13163731	     -0.32599974	     -3.59681721	      2.95390527	    -32.34741105	    -20.61122621	    -13.67895580	     11.09428737	     13.34429853	    -27.83152292	     61.06332280	      8.41140018	     86.19536932	     71.69613518	     50.77232524	     -4.46254041	     88.97405440	     42.51464816	      1.72307148	    -13.22327109	    -17.92230411	      4.93232609	      0.00082198	     -0.03079477	     -0.00481459	      0.01618198	     -0.01777208	     -0.00914183	      0.00590402	     -0.06596432	     -0.00184449	      0.00604433	     -0.18381916	     -0.00014232	     -0.00267317	      0.00070774	      0.00018853	      0.00031109	      0.00012444	      0.00062219	      0.00039820	      0.00119460	      0.00067196	     -0.00021165	      0.00009711	      0.00011653	      0.00251281	      0.00881612	      0.00613295	     -0.00821986	      0.01984692	     -0.01882476	      0.00251281	      0.00881612	      0.00613295	      0.00055367	      0.01839886	     -0.00966792	      0.00396663	      0.00490253	      0.01601315	      0.00000000	      0.00786046	      0.00000000	     -0.00719770	     -0.03326276	     -0.00648176	      0.01427178	     -0.00045873	     -0.00360522	     -0.00089439	      0.01499167	     -0.00613295	      0.00247022	      0.02163570	     -0.01788778	     -0.00600518	      0.01298994	     -0.00549410	     -0.01252145	      0.02742793	     -0.03070736	     -0.02350966	      0.01452318	     -0.00736806	     -0.01558793	      0.03168693	     -0.03837355
      0.10000000	     -0.32267111	      0.13666825	     -0.13666825	      0.32267111	     -0.06533434	      0.52800912	      0.23733647	     -0.23733647	     -0.52800912	      0.06533434	     99.44520051	     76.39525292	     -1.73564617	    -22.21622721	     27.78243597	     23.17976145	      0.09448254	     -0.66631552	      0.12091935	     -0.33315776	     -4.75040698	      2.15667893	    -32.29090740	    -18.07492623	    -13.53245330	     11.14851126	     13.30522145	    -25.80414127	     61.65960203	      8.02803281	     86.23212355	     70.09240512	     50.76011089	     -4.82304745	     89.97873407	     41.54640638	      1.61546945	    -13.22359383	    -18.24314279	      4.93856724	      0.00081896	     -0.03078429	     -0.00481291	      0.01621936	     -0.01774724	     -0.00906728	      0.00583728	     -0.06600747	     -0.00191725	      0.00613046	     -0.18380480	     -0.00016048	     -0.00278156	      0.00073967	      0.00019050	      0.00030993	      0.00012397	      0.00061985	      0.00039670	      0.00119011	      0.00066944	     -0.00033320	      0.00013130	      0.00015756	      0.00250407	      0.00878546	      0.00611163	     -0.00819128	      0.01977790	     -0.01875929	      0.00250407	      0.00878546	      0.00611163	      0.00055174	      0.01833488	     -0.00963430	      0.00395657	      0.00488548	      0.01598870	      0.00000000	      0.00780549	      0.00000000	     -0.00717267	     -0.03314708	     -0.00643613	      0.01502229	     -0.00050096	     -0.00410566	     -0.00089128	      0.01493953	     -0.00611163	      0.00246163	      0.02156046	     -0.01782557	     -0.00598430	      0.01294476	     -0.00547500	     -0.01247790	      0.02733255	     -0.03060057	     -0.02342790	      0.01447267	     -0.00734244	     -0.01553371	      0.03157673	     -0.03824010
      0.13333333	     -0.32313178	      0.13686337	     -0.13686337	      0.32313178	     -0.06542761	      0.52876295	      0.23767531	     -0.23767531	     -0.52876295	      0.06542761	     99.36679524	     76.50432096	     -1.73427774	    -21.65731194	     27.71727208	     22.77538833	      0.10095440	     -0.66248720	      0.12866775	     -0.33124360	     -5.31493870	      1.52052719	    -31.84356765	    -17.73260817	    -13.51974209	     11.12550064	     13.31720590	    -25.66399933	     62.11884449	      7.96993650	     86.19593313	     69.54413438	     50.83998124	     -4.78832976	     90.20559594	     41.42850026	      1.84720743	    -13.20094190	    -18.44370990	      4.93493730	      0.00081680	     -0.03077682	     -0.00481170	      0.01620287	     -0.01772953	     -0.00910080	      0.00586716	     -0.06598815	     -0.00188468	      0.00609187	     -0.18381126	     -0.00015243	     -0.00273304	      0.00072535	      0.00018968	      0.00031027	      0.00012411	      0.00062054	      0.00039714	      0.00119143	      0.00067018	     -0.00040361	      0.00014855	      0.00017826	      0.00250764	      0.00879800	      0.00612035	     -0.00820297	      0.01980614	     -0.01878608	      0.00250764	      0.00879800	      0.00612035	      0.00055253	      0.01836105	     -0.00964805	      0.00396069	      0.00489246	      0.01599872	      0.00000000	      0.00782795	      0.00000000	     -0.00718291	     -0.03319440	     -0.00645478	      0.01471424	     -0.00048338	     -0.00389492	     -0.00089255	      0.01496086	     -0.00612035	      0.00246514	      0.02159124	     -0.01785102	     -0.00599284	      0.01296324	     -0.00548281	     -0.01249572	      0.02737157	     -0.03064426	     -0.02346134	      0.01449333	     -0.00735292	     -0.01555589	      0.03162181	     -0.03829470
      0.16666667	     -0.32313222	      0.13686356	     -0.13686356	      0.32313222	     -0.06542770	      0.52876368	      0.23767563	     -0.23767563	     -0.52876368	      0.06542770	     99.35745610	     76.50442635	     -1.73411475	    -21.66017629	     27.71043055	     22.77527450	      0.10096314	     -0.66248948	      0.12867769	     -0.33124474	     -5.31607181	      1.51983117	    -31.84393439	    -17.73269252	    -13.51920573	     11.12538417	     13.31731260	    -25.66387192	     62.11946399	      7.96990801	     86.19587817	     69.54398118	     50.83985007	     -4.78832170	     90.20570735	     41.42849562	      1.84736841	    -13.20082677	    -18.44362413	      4.93495531	      0.00081657	     -0.03077604	     -0.00481158	      0.01620285	     -0.01772767	     -0.00910080	      0.00586716	     -0.06598815	     -0.00188467	      0.00609186	     -0.18381126	     -0.00015243	     -0.00273303	      0.00072535	      0.00018968	      0.00031027	      0.00012411	      0.00062054	      0.00039714	      0.00119143	      0.00067018	     -0.00040420	      0.00014860	      0.00017832	      0.00250765	      0.00879802	      0.00612036	     -0.00820298	      0.01980616	     -0.01878610	      0.00250765	      0.00879802	      0.00612036	      0.00055253	      0.01836108	     -0.00964807	      0.00396069	      0.00489247	      0.01599873	      0.00000000	      0.00782798	      0.00000000	     -0.00718292	     -0.03319445	     -0.00645480	      0.01471583	     -0.00048347	     -0.00389599	     -0.00089255	      0.01496088	     -0.00612036	      0.00246514	      0.02159127	     -0.01785105	     -0.00599285	      0.01296326	     -0.00548282	     -0.01249573	      0.02737161	     -0.03064430	     -0.02346138	      0.01449335	     -0.00735293	     -0.01555591	      0.03162186	     -0.03829475
